<?xml version="1.0" encoding="UTF-8"?>
<svg width="1024" height="1024" viewBox="0 0 1024 1024" xmlns="http://www.w3.org/2000/svg">
  <defs>
    <linearGradient id="bg" x1="0" y1="0" x2="1" y2="1">
      <stop offset="0%" stop-color="#121826"/>
      <stop offset="100%" stop-color="#0E1422"/>
    </linearGradient>
    <filter id="glow" x="-20%" y="-20%" width="140%" height="140%">
      <feGaussianBlur stdDeviation="8" result="blur"/>
      <feMerge>
        <feMergeNode in="blur"/>
        <feMergeNode in="SourceGraphic"/>
      </feMerge>
    </filter>
  </defs>
  <rect width="100%" height="100%" fill="url(#bg)"/>
  <!-- Toggle track -->
  <rect x="184" y="266.5" rx="81.5" ry="81.5" width="655" height="163" fill="#283655"/>
  <!-- Knob (on/right) -->
  <circle cx="757.5" cy="348" r="73" fill="#ECF0F4"/>
  <!-- Sine glow -->
  <polyline points="0,593.0 1,593.7455041373469 2,594.4909451223701 3,595.2362598080962 4,595.9813850582501 5,596.726257752604 6,597.4708147923249 7,598.2149931053184 8,598.9587296515731 9,599.7019614284994 10,600.4446254762678 11,601.186658883141 12,601.9279987908045 13,602.6685823996903 14,603.4083469742973 15,604.1472298485054 16,604.8851684308843 17,605.6221002099954 18,606.3579627596876 19,607.0926937443845 20,607.8262309243664 21,608.5585121610413 22,609.2894754222094 23,610.019058787318 24,610.7472004527065 25,611.4738387368418 26,612.1989120855437 27,612.9223590771994 28,613.6441184279656 29,614.3641289969613 30,615.0823297914459 31,615.7986599719864 32,616.5130588576114 33,617.2254659309513 34,617.9358208433644 35,618.6440634200494 36,619.3501336651433 37,620.0539717668028 38,620.7555181022716 39,621.4547132429309 40,622.151497959334 41,622.8458132262232 42,623.5376002275299 43,624.2268003613574 44,624.9133552449449 45,625.5972067196129 46,626.2782968556902 47,626.9565679574212 48,627.6319625678528 49,628.3044234737027 50,628.9738937102047 51,629.6403165659354 52,630.3036355876175 53,630.9637945849021 54,631.6207376351291 55,632.2744090880641 56,632.9247535706126 57,633.5717159915105 58,634.2152415459917 59,634.8552757204296 60,635.491764296956 61,636.124653358053 62,636.7538892911214 63,637.3794187930212 64,638.0011888745878 65,638.6191468651206 66,639.2332404168443 67,639.8434175093441 68,640.4496264539715 69,641.0518158982238 70,641.6499348300933 71,642.2439325823897 72,642.8337588370308 73,643.4193636293062 74,644.0006973521091 75,644.577710760139 76,645.1503549740731 77,645.7185814847069 78,646.2823421570633 79,646.8415892344709 80,647.3962753426085 81,647.9463534935188 82,648.4917770895887 83,649.0324999274968 84,649.5684762021268 85,650.0996605104483 86,650.6260078553626 87,651.1474736495143 88,651.6640137190689 89,652.1755843074541 90,652.6821420790669 91,653.1836441229449 92,653.6800479564002 93,654.1713115286194 94,654.6573932242252 95,655.1382518668015 96,655.6138467223817 97,656.0841375028996 98,656.5490843696016 99,657.0086479364221 100,657.4627892733196 101,657.9114699095744 102,658.3546518370478 103,658.7922975134015 104,659.2243698652783 105,659.6508322914419 106,660.0716486658782 107,660.486783340855 108,660.8962011499418 109,661.2998674109895 110,661.6977479290671 111,662.0898089993594 112,662.476017410022 113,662.8563404449943 114,663.230745886771 115,663.599202019132 116,663.9616776298279 117,664.318142013225 118,664.668564972906 119,665.0129168242279 120,665.3511683968368 121,665.6832910371389 122,666.0092566107278 123,666.3290375047676 124,666.6426066303324 125,666.9499374247002 126,667.2510038536045 127,667.5457804134379 128,667.8342421334143 129,668.1163645776825 130,668.3921238473977 131,668.661496582745 132,668.9244599649186 133,669.1809917180548 134,669.4310701111187 135,669.674673959746 136,669.911782628036 137,670.1423760303011 138,670.3664346327674 139,670.5839394552302 140,670.7948720726608 141,670.9992146167684 142,671.1969497775128 143,671.3880608045715 144,671.5725315087581 145,671.7503462633938 146,671.9214900056317 147,672.0859482377317 148,672.2437070282898 149,672.3947530134175 150,672.539073397874 151,672.6766559561502 152,672.8074890335042 153,672.9315615469491 154,673.0488629861907 155,673.1593834145193 156,673.2631134696502 157,673.3600443645175 158,673.4501678880183 159,673.5334764057083 160,673.6099628604479 161,673.6796207730014 162,673.7424442425844 163,673.7984279473645 164,673.8475671449121 165,673.8898576726015 166,673.9252959479643 167,673.9538789689924 168,673.9756043143925 169,673.9904701437912 170,673.9984751978907 171,673.9996187985756 172,673.9939008489707 173,673.9813218334484 174,673.9618828175885 175,673.9355854480875 176,673.9024319526189 177,673.8624251396453 178,673.8155683981795 179,673.7618656974981 180,673.7013215868051 181,673.6339411948461 182,673.5597302294747 183,673.4786949771682 184,673.3908423024955 185,673.2961796475354 186,673.194715031246 187,673.0864570487862 188,672.9714148707865 189,672.8495982425729 190,672.7210174833413 191,672.5856834852827 192,672.4436077126617 193,672.2948022008441 194,672.1392795552781 195,671.9770529504265 196,671.8081361286504 197,671.632543399045 198,671.4502896362278 199,671.2613902790785 200,671.0658613294306 201,670.863719350717 202,670.6549814665656 203,670.4396653593498 204,670.2177892686897 205,669.989371989908 206,669.7544328724371 207,669.5129918181799 208,669.2650692798247 209,669.0106862591117 210,668.7498643050548 211,668.4826255121151 212,668.2089925183304 213,667.9289885033969 214,667.6426371867054 215,667.3499628253327 216,667.050990211986 217,666.7457446729035 218,666.4342520657082 219,666.116538777218 220,665.7926317212102 221,665.462558336142 222,665.1263465828254 223,664.7840249420593 224,664.4356224122167 225,664.0811685067881 226,663.7206932518815 227,663.3542271836786 228,662.9818013458486 229,662.6034472869177 230,662.2191970575974 231,661.829083208069 232,661.4331387852263 233,661.031397329876 234,660.6238928738968 235,660.2106599373564 236,659.791733525587 237,659.3671491262205 238,658.9369427061819 239,658.5011507086422 240,658.0598100499323 241,657.6129581164147 242,657.1606327613172 243,656.702872301526 244,656.2397155143397 245,655.7712016341848 246,655.2973703492919 247,654.8182617983339 248,654.3339165670252 249,653.8443756846846 250,653.3496806207587 251,652.8498732813098 252,652.3449960054654 253,651.835091561832 254,651.3202031448719 255,650.8003743712443 256,650.2756492761104 257,649.7460723094031 258,649.211688332062 259,648.6725426122325 260,648.1286808214318 261,647.5801490306792 262,647.0269937065947 263,646.4692617074611 264,645.907000279256 265,645.3402570516487 266,644.7690800339658 267,644.1935176111245 268,643.6136185395333 269,643.0294319429621 270,642.4410073083811 271,641.8483944817682 272,641.2516436638871 273,640.6508054060342 274,640.0459306057569 275,639.4370705025414 276,638.8242766734727 277,638.207601028865 278,637.587095807865 279,636.9628135740257 280,636.3348072108548 281,635.7031299173341 282,635.0678352034128 283,634.4289768854755 284,633.7866090817831 285,633.1407862078876 286,632.4915629720233 287,631.8389943704724 288,631.1831356829058 289,630.5240424677007 290,629.8617705572339 291,629.1963760531523 292,628.5279153216208 293,627.8564449885467 294,627.1820219347837 295,626.5047032913133 296,625.8245464344042 297,625.1416089807535 298,624.455948782605 299,623.7676239228482 300,623.0766927100989 301,622.3832136737592 302,621.6872455590598 303,620.9888473220832 304,620.2880781247699 305,619.5849973299065 306,618.8796644960972 307,618.1721393727186 308,617.4624818948574 309,616.750752178235 310,616.037010514113 311,615.3213173641876 312,614.6037333554668 313,613.8843192751349 314,613.1631360654034 315,612.440244818348 316,611.7157067707343 317,610.9895832988295 318,610.2619359132034 319,609.5328262535181 320,608.8023160833064 321,608.0704672847392 322,607.337341853384 323,606.6030018929532 324,605.8675096100428 325,605.1309273088631 326,604.3933173859608 327,603.6547423249335 328,602.9152646911366 329,602.1749471263827 330,601.4338523436364 331,600.6920431217007 332,599.9495822998996 333,599.2065327727546 334,598.4629574846568 335,597.7189194245353 336,596.9744816205208 337,596.229707134607 338,595.4846590573076 339,594.7394005023131 340,593.9939946011433 341,593.2485044978002 342,592.5029933434186 343,591.757524290916 344,591.0121604896441 345,590.2669650800384 346,589.5220011882698 347,588.777331920897 348,588.0330203595212 349,587.2891295554413 350,586.5457225243142 351,585.8028622408156 352,585.0606116333056 353,584.3190335784985 354,583.5781908961357 355,582.8381463436648 356,582.0989626109227 357,581.3607023148262 358,580.6234279940661 359,579.887202103811 360,579.1520870104156 361,578.4181449861384 362,577.6854382038657 363,576.9540287318457 364,576.2239785284303 365,575.4953494368262 366,574.7682031798568 367,574.042601354733 368,573.3186054278357 369,572.5962767295084 370,571.8756764488627 371,571.1568656285939 372,570.4399051598108 373,569.7248557768769 374,569.0117780522664 375,568.3007323914325 376,567.5917790276898 377,566.8849780171133 378,566.18038923345 379,565.478072363047 380,564.7780868997958 381,564.0804921400922 382,563.3853471778133 383,562.6927108993119 384,562.0026419784277 385,561.3151988715174 386,560.6304398125027 387,559.9484228079367 388,559.2692056320914 389,558.5928458220621 390,557.9194006728947 391,557.2489272327309 392,556.5814822979769 393,555.917122408491 394,555.2559038427947 395,554.5978826133055 396,553.943114461591 397,553.2916548536484 398,552.6435589752047 399,551.9988817270424 400,551.3576777203491 401,550.7200012720905 402,550.0859064004102 403,549.4554468200528 404,548.8286759378142 405,548.2056468480179 406,547.5864123280157 407,546.9710248337193 408,546.3595364951545 409,545.7519991120464 410,545.1484641494312 411,544.5489827332963 412,543.9536056462497 413,543.3623833232178 414,542.7753658471736 415,542.1926029448933 416,541.6141439827447 417,541.0400379625048 418,540.4703335172089 419,539.9050789070312 420,539.3443220151961 421,538.7881103439225 422,538.2364910103994 423,537.6895107427949 424,537.1472158762975 425,536.6096523491915 426,536.0768656989648 427,535.5489010584519 428,535.0258031520107 429,534.5076162917335 430,533.9943843736938 431,533.486150874227 432,532.9829588462484 433,532.4848509156054 434,531.9918692774673 435,531.5040556927506 436,531.0214514845809 437,530.5440975347931 438,530.0720342804682 439,529.6053017105073 440,529.1439393622449 441,528.6879863180988 442,528.2374812022597 443,527.79246217742 444,527.3529669415399 445,526.9190327246546 446,526.4906962857206 447,526.0679939095013 448,525.6509614034939 449,525.2396340948956 450,524.8340468276112 451,524.4342339593018 452,524.0402293584735 453,523.6520664016093 454,523.2697779703409 455,522.8933964486639 456,522.5229537201944 457,522.1584811654677 458,521.8000096592807 459,521.4475695680758 460,521.1011907473688 461,520.7609025392202 462,520.426733769749 463,520.098712746691 464,519.7768672570011 465,519.461224564499 466,519.1518114075602 467,518.8486539968503 468,518.5517780131054 469,518.2612086049559 470,517.9769703867968 471,517.6990874367023 472,517.4275832943862 473,517.1624809592074 474,516.9038028882226 475,516.6515709942828 476,516.4058066441778 477,516.1665306568259 478,515.9337633015103 479,515.7075242961624 480,515.4878328056911 481,515.2747074403593 482,515.0681662542077 483,514.8682267435252 484,514.674905845367 485,514.4882199361195 486,514.3081848301136 487,514.1348157782843 488,513.9681274668792 489,513.8081340162147 490,513.6548489794793 491,513.5082853415859 492,513.3684555180715 493,513.2353713540458 494,513.1090441231875 495,512.9894845267896 496,512.8767026928527 497,512.770708175227 498,512.6715099528029 499,512.5791164287509 500,512.4935354298092 501,512.4147742056207 502,512.3428394281195 503,512.277737190965 504,512.219473009026 505,512.1680518179137 506,512.1234779735631 507,512.0857552518646 508,512.0548868483437 509,512.0308753778905 510,512.0137228745383 511,512.003430791291 512,512.0 513,512.003430791291 514,512.0137228745383 515,512.0308753778905 516,512.0548868483437 517,512.0857552518646 518,512.1234779735631 519,512.1680518179137 520,512.219473009026 521,512.277737190965 522,512.3428394281195 523,512.4147742056207 524,512.4935354298092 525,512.5791164287509 526,512.6715099528029 527,512.770708175227 528,512.8767026928527 529,512.9894845267896 530,513.1090441231875 531,513.2353713540458 532,513.3684555180714 533,513.5082853415859 534,513.6548489794793 535,513.8081340162147 536,513.9681274668792 537,514.1348157782843 538,514.3081848301136 539,514.4882199361195 540,514.674905845367 541,514.8682267435252 542,515.0681662542077 543,515.2747074403593 544,515.4878328056911 545,515.7075242961624 546,515.9337633015103 547,516.1665306568259 548,516.4058066441778 549,516.6515709942828 550,516.9038028882226 551,517.1624809592074 552,517.4275832943862 553,517.6990874367023 554,517.9769703867968 555,518.2612086049559 556,518.5517780131053 557,518.8486539968503 558,519.1518114075602 559,519.461224564499 560,519.7768672570011 561,520.098712746691 562,520.426733769749 563,520.7609025392202 564,521.1011907473688 565,521.4475695680758 566,521.8000096592807 567,522.1584811654677 568,522.5229537201943 569,522.8933964486639 570,523.2697779703409 571,523.6520664016092 572,524.0402293584735 573,524.4342339593018 574,524.8340468276112 575,525.2396340948956 576,525.6509614034939 577,526.0679939095013 578,526.4906962857206 579,526.9190327246546 580,527.3529669415398 581,527.7924621774199 582,528.2374812022597 583,528.6879863180986 584,529.1439393622449 585,529.6053017105073 586,530.0720342804682 587,530.5440975347931 588,531.0214514845809 589,531.5040556927505 590,531.9918692774673 591,532.4848509156054 592,532.9829588462483 593,533.486150874227 594,533.9943843736937 595,534.5076162917335 596,535.0258031520107 597,535.5489010584519 598,536.0768656989648 599,536.6096523491915 600,537.1472158762975 601,537.6895107427949 602,538.2364910103994 603,538.7881103439224 604,539.3443220151961 605,539.9050789070311 606,540.4703335172088 607,541.0400379625047 608,541.6141439827447 609,542.1926029448933 610,542.7753658471736 611,543.3623833232178 612,543.9536056462496 613,544.5489827332963 614,545.1484641494312 615,545.7519991120464 616,546.3595364951545 617,546.9710248337193 618,547.5864123280157 619,548.2056468480178 620,548.8286759378142 621,549.4554468200528 622,550.0859064004101 623,550.7200012720905 624,551.357677720349 625,551.9988817270424 626,552.6435589752047 627,553.2916548536484 628,553.943114461591 629,554.5978826133054 630,555.2559038427947 631,555.917122408491 632,556.5814822979769 633,557.2489272327309 634,557.9194006728947 635,558.5928458220621 636,559.2692056320914 637,559.9484228079367 638,560.6304398125026 639,561.3151988715174 640,562.0026419784277 641,562.6927108993119 642,563.3853471778133 643,564.0804921400922 644,564.7780868997958 645,565.478072363047 646,566.18038923345 647,566.8849780171133 648,567.5917790276898 649,568.3007323914325 650,569.0117780522664 651,569.7248557768769 652,570.4399051598107 653,571.1568656285939 654,571.8756764488627 655,572.5962767295084 656,573.3186054278356 657,574.0426013547329 658,574.7682031798568 659,575.4953494368262 660,576.2239785284303 661,576.9540287318457 662,577.6854382038656 663,578.4181449861383 664,579.1520870104156 665,579.887202103811 666,580.6234279940661 667,581.3607023148261 668,582.0989626109227 669,582.8381463436648 670,583.5781908961358 671,584.3190335784984 672,585.0606116333056 673,585.8028622408154 674,586.5457225243141 675,587.2891295554413 676,588.0330203595212 677,588.777331920897 678,589.5220011882697 679,590.2669650800384 680,591.0121604896441 681,591.757524290916 682,592.5029933434184 683,593.2485044978002 684,593.9939946011433 685,594.739400502313 686,595.4846590573076 687,596.229707134607 688,596.9744816205208 689,597.7189194245352 690,598.4629574846567 691,599.2065327727545 692,599.9495822998996 693,600.6920431217006 694,601.4338523436364 695,602.1749471263827 696,602.9152646911365 697,603.6547423249335 698,604.3933173859608 699,605.130927308863 700,605.8675096100427 701,606.6030018929532 702,607.337341853384 703,608.0704672847392 704,608.8023160833063 705,609.5328262535181 706,610.2619359132034 707,610.9895832988294 708,611.7157067707344 709,612.4402448183481 710,613.1631360654033 711,613.8843192751348 712,614.6037333554667 713,615.3213173641876 714,616.037010514113 715,616.750752178235 716,617.4624818948574 717,618.1721393727184 718,618.8796644960972 719,619.5849973299065 720,620.2880781247699 721,620.9888473220831 722,621.6872455590596 723,622.3832136737592 724,623.0766927100988 725,623.7676239228481 726,624.455948782605 727,625.1416089807535 728,625.8245464344042 729,626.5047032913131 730,627.1820219347837 731,627.8564449885467 732,628.5279153216208 733,629.1963760531522 734,629.8617705572339 735,630.5240424677006 736,631.1831356829058 737,631.8389943704724 738,632.4915629720233 739,633.1407862078875 740,633.7866090817831 741,634.4289768854757 742,635.0678352034128 743,635.703129917334 744,636.3348072108548 745,636.9628135740257 746,637.587095807865 747,638.207601028865 748,638.8242766734727 749,639.4370705025415 750,640.0459306057569 751,640.6508054060342 752,641.2516436638871 753,641.8483944817682 754,642.441007308381 755,643.029431942962 756,643.6136185395333 757,644.1935176111245 758,644.7690800339658 759,645.3402570516487 760,645.907000279256 761,646.469261707461 762,647.0269937065946 763,647.5801490306793 764,648.1286808214318 765,648.6725426122324 766,649.2116883320618 767,649.7460723094031 768,650.2756492761104 769,650.8003743712443 770,651.3202031448719 771,651.835091561832 772,652.3449960054654 773,652.8498732813098 774,653.3496806207587 775,653.8443756846846 776,654.3339165670252 777,654.8182617983338 778,655.2973703492919 779,655.7712016341848 780,656.2397155143397 781,656.702872301526 782,657.1606327613172 783,657.6129581164146 784,658.0598100499323 785,658.5011507086422 786,658.9369427061819 787,659.3671491262205 788,659.791733525587 789,660.2106599373564 790,660.6238928738968 791,661.031397329876 792,661.4331387852263 793,661.829083208069 794,662.2191970575974 795,662.6034472869177 796,662.9818013458486 797,663.3542271836786 798,663.7206932518815 799,664.0811685067881 800,664.4356224122167 801,664.7840249420593 802,665.1263465828254 803,665.462558336142 804,665.7926317212102 805,666.1165387772179 806,666.434252065708 807,666.7457446729035 808,667.050990211986 809,667.3499628253326 810,667.6426371867053 811,667.9289885033969 812,668.2089925183304 813,668.4826255121151 814,668.7498643050548 815,669.0106862591117 816,669.2650692798246 817,669.5129918181799 818,669.7544328724371 819,669.989371989908 820,670.2177892686897 821,670.4396653593496 822,670.6549814665656 823,670.863719350717 824,671.0658613294306 825,671.2613902790785 826,671.4502896362278 827,671.632543399045 828,671.8081361286504 829,671.9770529504265 830,672.1392795552781 831,672.2948022008441 832,672.4436077126617 833,672.5856834852827 834,672.7210174833413 835,672.8495982425729 836,672.9714148707866 837,673.0864570487862 838,673.194715031246 839,673.2961796475354 840,673.3908423024955 841,673.4786949771682 842,673.5597302294747 843,673.6339411948461 844,673.7013215868051 845,673.7618656974981 846,673.8155683981795 847,673.8624251396453 848,673.9024319526189 849,673.9355854480875 850,673.9618828175885 851,673.9813218334484 852,673.9939008489707 853,673.9996187985756 854,673.9984751978907 855,673.9904701437912 856,673.9756043143925 857,673.9538789689924 858,673.9252959479643 859,673.8898576726015 860,673.8475671449121 861,673.7984279473646 862,673.7424442425844 863,673.6796207730014 864,673.6099628604479 865,673.5334764057083 866,673.4501678880183 867,673.3600443645175 868,673.2631134696502 869,673.1593834145193 870,673.0488629861907 871,672.9315615469491 872,672.8074890335042 873,672.6766559561502 874,672.539073397874 875,672.3947530134175 876,672.2437070282898 877,672.0859482377317 878,671.9214900056317 879,671.7503462633938 880,671.5725315087581 881,671.3880608045715 882,671.1969497775128 883,670.9992146167684 884,670.7948720726608 885,670.5839394552302 886,670.3664346327674 887,670.142376030301 888,669.911782628036 889,669.674673959746 890,669.4310701111187 891,669.1809917180547 892,668.9244599649186 893,668.661496582745 894,668.3921238473978 895,668.1163645776825 896,667.8342421334143 897,667.545780413438 898,667.2510038536044 899,666.9499374247002 900,666.6426066303322 901,666.3290375047676 902,666.0092566107278 903,665.6832910371389 904,665.3511683968368 905,665.0129168242279 906,664.668564972906 907,664.318142013225 908,663.9616776298279 909,663.599202019132 910,663.2307458867712 911,662.8563404449943 912,662.476017410022 913,662.0898089993594 914,661.6977479290671 915,661.2998674109895 916,660.8962011499419 917,660.4867833408549 918,660.0716486658782 919,659.6508322914419 920,659.2243698652783 921,658.7922975134015 922,658.3546518370478 923,657.9114699095744 924,657.4627892733196 925,657.0086479364221 926,656.5490843696017 927,656.0841375028996 928,655.6138467223817 929,655.1382518668014 930,654.6573932242253 931,654.1713115286194 932,653.6800479564002 933,653.1836441229449 934,652.682142079067 935,652.175584307454 936,651.6640137190689 937,651.1474736495144 938,650.6260078553627 939,650.0996605104483 940,649.5684762021268 941,649.0324999274968 942,648.4917770895887 943,647.9463534935188 944,647.3962753426084 945,646.8415892344709 946,646.2823421570633 947,645.7185814847069 948,645.1503549740731 949,644.577710760139 950,644.0006973521091 951,643.4193636293062 952,642.8337588370308 953,642.2439325823897 954,641.6499348300935 955,641.0518158982238 956,640.4496264539716 957,639.843417509344 958,639.2332404168444 959,638.6191468651207 960,638.0011888745879 961,637.379418793021 962,636.7538892911214 963,636.1246533580531 964,635.4917642969559 965,634.8552757204297 966,634.2152415459916 967,633.5717159915106 968,632.9247535706124 969,632.2744090880641 970,631.6207376351292 971,630.9637945849021 972,630.3036355876175 973,629.6403165659354 974,628.9738937102048 975,628.3044234737026 976,627.631962567853 977,626.9565679574213 978,626.2782968556902 979,625.5972067196128 980,624.9133552449449 981,624.2268003613575 982,623.5376002275299 983,622.8458132262231 984,622.151497959334 985,621.454713242931 986,620.7555181022715 987,620.0539717668028 988,619.3501336651433 989,618.6440634200495 990,617.9358208433642 991,617.2254659309513 992,616.5130588576116 993,615.7986599719864 994,615.082329791446 995,614.3641289969613 996,613.6441184279657 997,612.9223590771993 998,612.1989120855438 999,611.4738387368419 1000,610.7472004527065 1001,610.019058787318 1002,609.2894754222094 1003,608.5585121610413 1004,607.8262309243664 1005,607.0926937443845 1006,606.3579627596876 1007,605.6221002099956 1008,604.8851684308843 1009,604.1472298485054 1010,603.4083469742973 1011,602.6685823996903 1012,601.9279987908045 1013,601.186658883141 1014,600.4446254762679 1015,599.7019614284994 1016,598.9587296515731 1017,598.2149931053185 1018,597.470814792325 1019,596.726257752604 1020,595.9813850582501 1021,595.2362598080963 1022,594.4909451223702 1023,593.7455041373468 1024,593.0" stroke="rgba(0,221,183,0.28)" stroke-width="61" fill="none" filter="url(#glow)"/>
  <!-- Sine -->
  <polyline points="0,593.0 1,593.7455041373469 2,594.4909451223701 3,595.2362598080962 4,595.9813850582501 5,596.726257752604 6,597.4708147923249 7,598.2149931053184 8,598.9587296515731 9,599.7019614284994 10,600.4446254762678 11,601.186658883141 12,601.9279987908045 13,602.6685823996903 14,603.4083469742973 15,604.1472298485054 16,604.8851684308843 17,605.6221002099954 18,606.3579627596876 19,607.0926937443845 20,607.8262309243664 21,608.5585121610413 22,609.2894754222094 23,610.019058787318 24,610.7472004527065 25,611.4738387368418 26,612.1989120855437 27,612.9223590771994 28,613.6441184279656 29,614.3641289969613 30,615.0823297914459 31,615.7986599719864 32,616.5130588576114 33,617.2254659309513 34,617.9358208433644 35,618.6440634200494 36,619.3501336651433 37,620.0539717668028 38,620.7555181022716 39,621.4547132429309 40,622.151497959334 41,622.8458132262232 42,623.5376002275299 43,624.2268003613574 44,624.9133552449449 45,625.5972067196129 46,626.2782968556902 47,626.9565679574212 48,627.6319625678528 49,628.3044234737027 50,628.9738937102047 51,629.6403165659354 52,630.3036355876175 53,630.9637945849021 54,631.6207376351291 55,632.2744090880641 56,632.9247535706126 57,633.5717159915105 58,634.2152415459917 59,634.8552757204296 60,635.491764296956 61,636.124653358053 62,636.7538892911214 63,637.3794187930212 64,638.0011888745878 65,638.6191468651206 66,639.2332404168443 67,639.8434175093441 68,640.4496264539715 69,641.0518158982238 70,641.6499348300933 71,642.2439325823897 72,642.8337588370308 73,643.4193636293062 74,644.0006973521091 75,644.577710760139 76,645.1503549740731 77,645.7185814847069 78,646.2823421570633 79,646.8415892344709 80,647.3962753426085 81,647.9463534935188 82,648.4917770895887 83,649.0324999274968 84,649.5684762021268 85,650.0996605104483 86,650.6260078553626 87,651.1474736495143 88,651.6640137190689 89,652.1755843074541 90,652.6821420790669 91,653.1836441229449 92,653.6800479564002 93,654.1713115286194 94,654.6573932242252 95,655.1382518668015 96,655.6138467223817 97,656.0841375028996 98,656.5490843696016 99,657.0086479364221 100,657.4627892733196 101,657.9114699095744 102,658.3546518370478 103,658.7922975134015 104,659.2243698652783 105,659.6508322914419 106,660.0716486658782 107,660.486783340855 108,660.8962011499418 109,661.2998674109895 110,661.6977479290671 111,662.0898089993594 112,662.476017410022 113,662.8563404449943 114,663.230745886771 115,663.599202019132 116,663.9616776298279 117,664.318142013225 118,664.668564972906 119,665.0129168242279 120,665.3511683968368 121,665.6832910371389 122,666.0092566107278 123,666.3290375047676 124,666.6426066303324 125,666.9499374247002 126,667.2510038536045 127,667.5457804134379 128,667.8342421334143 129,668.1163645776825 130,668.3921238473977 131,668.661496582745 132,668.9244599649186 133,669.1809917180548 134,669.4310701111187 135,669.674673959746 136,669.911782628036 137,670.1423760303011 138,670.3664346327674 139,670.5839394552302 140,670.7948720726608 141,670.9992146167684 142,671.1969497775128 143,671.3880608045715 144,671.5725315087581 145,671.7503462633938 146,671.9214900056317 147,672.0859482377317 148,672.2437070282898 149,672.3947530134175 150,672.539073397874 151,672.6766559561502 152,672.8074890335042 153,672.9315615469491 154,673.0488629861907 155,673.1593834145193 156,673.2631134696502 157,673.3600443645175 158,673.4501678880183 159,673.5334764057083 160,673.6099628604479 161,673.6796207730014 162,673.7424442425844 163,673.7984279473645 164,673.8475671449121 165,673.8898576726015 166,673.9252959479643 167,673.9538789689924 168,673.9756043143925 169,673.9904701437912 170,673.9984751978907 171,673.9996187985756 172,673.9939008489707 173,673.9813218334484 174,673.9618828175885 175,673.9355854480875 176,673.9024319526189 177,673.8624251396453 178,673.8155683981795 179,673.7618656974981 180,673.7013215868051 181,673.6339411948461 182,673.5597302294747 183,673.4786949771682 184,673.3908423024955 185,673.2961796475354 186,673.194715031246 187,673.0864570487862 188,672.9714148707865 189,672.8495982425729 190,672.7210174833413 191,672.5856834852827 192,672.4436077126617 193,672.2948022008441 194,672.1392795552781 195,671.9770529504265 196,671.8081361286504 197,671.632543399045 198,671.4502896362278 199,671.2613902790785 200,671.0658613294306 201,670.863719350717 202,670.6549814665656 203,670.4396653593498 204,670.2177892686897 205,669.989371989908 206,669.7544328724371 207,669.5129918181799 208,669.2650692798247 209,669.0106862591117 210,668.7498643050548 211,668.4826255121151 212,668.2089925183304 213,667.9289885033969 214,667.6426371867054 215,667.3499628253327 216,667.050990211986 217,666.7457446729035 218,666.4342520657082 219,666.116538777218 220,665.7926317212102 221,665.462558336142 222,665.1263465828254 223,664.7840249420593 224,664.4356224122167 225,664.0811685067881 226,663.7206932518815 227,663.3542271836786 228,662.9818013458486 229,662.6034472869177 230,662.2191970575974 231,661.829083208069 232,661.4331387852263 233,661.031397329876 234,660.6238928738968 235,660.2106599373564 236,659.791733525587 237,659.3671491262205 238,658.9369427061819 239,658.5011507086422 240,658.0598100499323 241,657.6129581164147 242,657.1606327613172 243,656.702872301526 244,656.2397155143397 245,655.7712016341848 246,655.2973703492919 247,654.8182617983339 248,654.3339165670252 249,653.8443756846846 250,653.3496806207587 251,652.8498732813098 252,652.3449960054654 253,651.835091561832 254,651.3202031448719 255,650.8003743712443 256,650.2756492761104 257,649.7460723094031 258,649.211688332062 259,648.6725426122325 260,648.1286808214318 261,647.5801490306792 262,647.0269937065947 263,646.4692617074611 264,645.907000279256 265,645.3402570516487 266,644.7690800339658 267,644.1935176111245 268,643.6136185395333 269,643.0294319429621 270,642.4410073083811 271,641.8483944817682 272,641.2516436638871 273,640.6508054060342 274,640.0459306057569 275,639.4370705025414 276,638.8242766734727 277,638.207601028865 278,637.587095807865 279,636.9628135740257 280,636.3348072108548 281,635.7031299173341 282,635.0678352034128 283,634.4289768854755 284,633.7866090817831 285,633.1407862078876 286,632.4915629720233 287,631.8389943704724 288,631.1831356829058 289,630.5240424677007 290,629.8617705572339 291,629.1963760531523 292,628.5279153216208 293,627.8564449885467 294,627.1820219347837 295,626.5047032913133 296,625.8245464344042 297,625.1416089807535 298,624.455948782605 299,623.7676239228482 300,623.0766927100989 301,622.3832136737592 302,621.6872455590598 303,620.9888473220832 304,620.2880781247699 305,619.5849973299065 306,618.8796644960972 307,618.1721393727186 308,617.4624818948574 309,616.750752178235 310,616.037010514113 311,615.3213173641876 312,614.6037333554668 313,613.8843192751349 314,613.1631360654034 315,612.440244818348 316,611.7157067707343 317,610.9895832988295 318,610.2619359132034 319,609.5328262535181 320,608.8023160833064 321,608.0704672847392 322,607.337341853384 323,606.6030018929532 324,605.8675096100428 325,605.1309273088631 326,604.3933173859608 327,603.6547423249335 328,602.9152646911366 329,602.1749471263827 330,601.4338523436364 331,600.6920431217007 332,599.9495822998996 333,599.2065327727546 334,598.4629574846568 335,597.7189194245353 336,596.9744816205208 337,596.229707134607 338,595.4846590573076 339,594.7394005023131 340,593.9939946011433 341,593.2485044978002 342,592.5029933434186 343,591.757524290916 344,591.0121604896441 345,590.2669650800384 346,589.5220011882698 347,588.777331920897 348,588.0330203595212 349,587.2891295554413 350,586.5457225243142 351,585.8028622408156 352,585.0606116333056 353,584.3190335784985 354,583.5781908961357 355,582.8381463436648 356,582.0989626109227 357,581.3607023148262 358,580.6234279940661 359,579.887202103811 360,579.1520870104156 361,578.4181449861384 362,577.6854382038657 363,576.9540287318457 364,576.2239785284303 365,575.4953494368262 366,574.7682031798568 367,574.042601354733 368,573.3186054278357 369,572.5962767295084 370,571.8756764488627 371,571.1568656285939 372,570.4399051598108 373,569.7248557768769 374,569.0117780522664 375,568.3007323914325 376,567.5917790276898 377,566.8849780171133 378,566.18038923345 379,565.478072363047 380,564.7780868997958 381,564.0804921400922 382,563.3853471778133 383,562.6927108993119 384,562.0026419784277 385,561.3151988715174 386,560.6304398125027 387,559.9484228079367 388,559.2692056320914 389,558.5928458220621 390,557.9194006728947 391,557.2489272327309 392,556.5814822979769 393,555.917122408491 394,555.2559038427947 395,554.5978826133055 396,553.943114461591 397,553.2916548536484 398,552.6435589752047 399,551.9988817270424 400,551.3576777203491 401,550.7200012720905 402,550.0859064004102 403,549.4554468200528 404,548.8286759378142 405,548.2056468480179 406,547.5864123280157 407,546.9710248337193 408,546.3595364951545 409,545.7519991120464 410,545.1484641494312 411,544.5489827332963 412,543.9536056462497 413,543.3623833232178 414,542.7753658471736 415,542.1926029448933 416,541.6141439827447 417,541.0400379625048 418,540.4703335172089 419,539.9050789070312 420,539.3443220151961 421,538.7881103439225 422,538.2364910103994 423,537.6895107427949 424,537.1472158762975 425,536.6096523491915 426,536.0768656989648 427,535.5489010584519 428,535.0258031520107 429,534.5076162917335 430,533.9943843736938 431,533.486150874227 432,532.9829588462484 433,532.4848509156054 434,531.9918692774673 435,531.5040556927506 436,531.0214514845809 437,530.5440975347931 438,530.0720342804682 439,529.6053017105073 440,529.1439393622449 441,528.6879863180988 442,528.2374812022597 443,527.79246217742 444,527.3529669415399 445,526.9190327246546 446,526.4906962857206 447,526.0679939095013 448,525.6509614034939 449,525.2396340948956 450,524.8340468276112 451,524.4342339593018 452,524.0402293584735 453,523.6520664016093 454,523.2697779703409 455,522.8933964486639 456,522.5229537201944 457,522.1584811654677 458,521.8000096592807 459,521.4475695680758 460,521.1011907473688 461,520.7609025392202 462,520.426733769749 463,520.098712746691 464,519.7768672570011 465,519.461224564499 466,519.1518114075602 467,518.8486539968503 468,518.5517780131054 469,518.2612086049559 470,517.9769703867968 471,517.6990874367023 472,517.4275832943862 473,517.1624809592074 474,516.9038028882226 475,516.6515709942828 476,516.4058066441778 477,516.1665306568259 478,515.9337633015103 479,515.7075242961624 480,515.4878328056911 481,515.2747074403593 482,515.0681662542077 483,514.8682267435252 484,514.674905845367 485,514.4882199361195 486,514.3081848301136 487,514.1348157782843 488,513.9681274668792 489,513.8081340162147 490,513.6548489794793 491,513.5082853415859 492,513.3684555180715 493,513.2353713540458 494,513.1090441231875 495,512.9894845267896 496,512.8767026928527 497,512.770708175227 498,512.6715099528029 499,512.5791164287509 500,512.4935354298092 501,512.4147742056207 502,512.3428394281195 503,512.277737190965 504,512.219473009026 505,512.1680518179137 506,512.1234779735631 507,512.0857552518646 508,512.0548868483437 509,512.0308753778905 510,512.0137228745383 511,512.003430791291 512,512.0 513,512.003430791291 514,512.0137228745383 515,512.0308753778905 516,512.0548868483437 517,512.0857552518646 518,512.1234779735631 519,512.1680518179137 520,512.219473009026 521,512.277737190965 522,512.3428394281195 523,512.4147742056207 524,512.4935354298092 525,512.5791164287509 526,512.6715099528029 527,512.770708175227 528,512.8767026928527 529,512.9894845267896 530,513.1090441231875 531,513.2353713540458 532,513.3684555180714 533,513.5082853415859 534,513.6548489794793 535,513.8081340162147 536,513.9681274668792 537,514.1348157782843 538,514.3081848301136 539,514.4882199361195 540,514.674905845367 541,514.8682267435252 542,515.0681662542077 543,515.2747074403593 544,515.4878328056911 545,515.7075242961624 546,515.9337633015103 547,516.1665306568259 548,516.4058066441778 549,516.6515709942828 550,516.9038028882226 551,517.1624809592074 552,517.4275832943862 553,517.6990874367023 554,517.9769703867968 555,518.2612086049559 556,518.5517780131053 557,518.8486539968503 558,519.1518114075602 559,519.461224564499 560,519.7768672570011 561,520.098712746691 562,520.426733769749 563,520.7609025392202 564,521.1011907473688 565,521.4475695680758 566,521.8000096592807 567,522.1584811654677 568,522.5229537201943 569,522.8933964486639 570,523.2697779703409 571,523.6520664016092 572,524.0402293584735 573,524.4342339593018 574,524.8340468276112 575,525.2396340948956 576,525.6509614034939 577,526.0679939095013 578,526.4906962857206 579,526.9190327246546 580,527.3529669415398 581,527.7924621774199 582,528.2374812022597 583,528.6879863180986 584,529.1439393622449 585,529.6053017105073 586,530.0720342804682 587,530.5440975347931 588,531.0214514845809 589,531.5040556927505 590,531.9918692774673 591,532.4848509156054 592,532.9829588462483 593,533.486150874227 594,533.9943843736937 595,534.5076162917335 596,535.0258031520107 597,535.5489010584519 598,536.0768656989648 599,536.6096523491915 600,537.1472158762975 601,537.6895107427949 602,538.2364910103994 603,538.7881103439224 604,539.3443220151961 605,539.9050789070311 606,540.4703335172088 607,541.0400379625047 608,541.6141439827447 609,542.1926029448933 610,542.7753658471736 611,543.3623833232178 612,543.9536056462496 613,544.5489827332963 614,545.1484641494312 615,545.7519991120464 616,546.3595364951545 617,546.9710248337193 618,547.5864123280157 619,548.2056468480178 620,548.8286759378142 621,549.4554468200528 622,550.0859064004101 623,550.7200012720905 624,551.357677720349 625,551.9988817270424 626,552.6435589752047 627,553.2916548536484 628,553.943114461591 629,554.5978826133054 630,555.2559038427947 631,555.917122408491 632,556.5814822979769 633,557.2489272327309 634,557.9194006728947 635,558.5928458220621 636,559.2692056320914 637,559.9484228079367 638,560.6304398125026 639,561.3151988715174 640,562.0026419784277 641,562.6927108993119 642,563.3853471778133 643,564.0804921400922 644,564.7780868997958 645,565.478072363047 646,566.18038923345 647,566.8849780171133 648,567.5917790276898 649,568.3007323914325 650,569.0117780522664 651,569.7248557768769 652,570.4399051598107 653,571.1568656285939 654,571.8756764488627 655,572.5962767295084 656,573.3186054278356 657,574.0426013547329 658,574.7682031798568 659,575.4953494368262 660,576.2239785284303 661,576.9540287318457 662,577.6854382038656 663,578.4181449861383 664,579.1520870104156 665,579.887202103811 666,580.6234279940661 667,581.3607023148261 668,582.0989626109227 669,582.8381463436648 670,583.5781908961358 671,584.3190335784984 672,585.0606116333056 673,585.8028622408154 674,586.5457225243141 675,587.2891295554413 676,588.0330203595212 677,588.777331920897 678,589.5220011882697 679,590.2669650800384 680,591.0121604896441 681,591.757524290916 682,592.5029933434184 683,593.2485044978002 684,593.9939946011433 685,594.739400502313 686,595.4846590573076 687,596.229707134607 688,596.9744816205208 689,597.7189194245352 690,598.4629574846567 691,599.2065327727545 692,599.9495822998996 693,600.6920431217006 694,601.4338523436364 695,602.1749471263827 696,602.9152646911365 697,603.6547423249335 698,604.3933173859608 699,605.130927308863 700,605.8675096100427 701,606.6030018929532 702,607.337341853384 703,608.0704672847392 704,608.8023160833063 705,609.5328262535181 706,610.2619359132034 707,610.9895832988294 708,611.7157067707344 709,612.4402448183481 710,613.1631360654033 711,613.8843192751348 712,614.6037333554667 713,615.3213173641876 714,616.037010514113 715,616.750752178235 716,617.4624818948574 717,618.1721393727184 718,618.8796644960972 719,619.5849973299065 720,620.2880781247699 721,620.9888473220831 722,621.6872455590596 723,622.3832136737592 724,623.0766927100988 725,623.7676239228481 726,624.455948782605 727,625.1416089807535 728,625.8245464344042 729,626.5047032913131 730,627.1820219347837 731,627.8564449885467 732,628.5279153216208 733,629.1963760531522 734,629.8617705572339 735,630.5240424677006 736,631.1831356829058 737,631.8389943704724 738,632.4915629720233 739,633.1407862078875 740,633.7866090817831 741,634.4289768854757 742,635.0678352034128 743,635.703129917334 744,636.3348072108548 745,636.9628135740257 746,637.587095807865 747,638.207601028865 748,638.8242766734727 749,639.4370705025415 750,640.0459306057569 751,640.6508054060342 752,641.2516436638871 753,641.8483944817682 754,642.441007308381 755,643.029431942962 756,643.6136185395333 757,644.1935176111245 758,644.7690800339658 759,645.3402570516487 760,645.907000279256 761,646.469261707461 762,647.0269937065946 763,647.5801490306793 764,648.1286808214318 765,648.6725426122324 766,649.2116883320618 767,649.7460723094031 768,650.2756492761104 769,650.8003743712443 770,651.3202031448719 771,651.835091561832 772,652.3449960054654 773,652.8498732813098 774,653.3496806207587 775,653.8443756846846 776,654.3339165670252 777,654.8182617983338 778,655.2973703492919 779,655.7712016341848 780,656.2397155143397 781,656.702872301526 782,657.1606327613172 783,657.6129581164146 784,658.0598100499323 785,658.5011507086422 786,658.9369427061819 787,659.3671491262205 788,659.791733525587 789,660.2106599373564 790,660.6238928738968 791,661.031397329876 792,661.4331387852263 793,661.829083208069 794,662.2191970575974 795,662.6034472869177 796,662.9818013458486 797,663.3542271836786 798,663.7206932518815 799,664.0811685067881 800,664.4356224122167 801,664.7840249420593 802,665.1263465828254 803,665.462558336142 804,665.7926317212102 805,666.1165387772179 806,666.434252065708 807,666.7457446729035 808,667.050990211986 809,667.3499628253326 810,667.6426371867053 811,667.9289885033969 812,668.2089925183304 813,668.4826255121151 814,668.7498643050548 815,669.0106862591117 816,669.2650692798246 817,669.5129918181799 818,669.7544328724371 819,669.989371989908 820,670.2177892686897 821,670.4396653593496 822,670.6549814665656 823,670.863719350717 824,671.0658613294306 825,671.2613902790785 826,671.4502896362278 827,671.632543399045 828,671.8081361286504 829,671.9770529504265 830,672.1392795552781 831,672.2948022008441 832,672.4436077126617 833,672.5856834852827 834,672.7210174833413 835,672.8495982425729 836,672.9714148707866 837,673.0864570487862 838,673.194715031246 839,673.2961796475354 840,673.3908423024955 841,673.4786949771682 842,673.5597302294747 843,673.6339411948461 844,673.7013215868051 845,673.7618656974981 846,673.8155683981795 847,673.8624251396453 848,673.9024319526189 849,673.9355854480875 850,673.9618828175885 851,673.9813218334484 852,673.9939008489707 853,673.9996187985756 854,673.9984751978907 855,673.9904701437912 856,673.9756043143925 857,673.9538789689924 858,673.9252959479643 859,673.8898576726015 860,673.8475671449121 861,673.7984279473646 862,673.7424442425844 863,673.6796207730014 864,673.6099628604479 865,673.5334764057083 866,673.4501678880183 867,673.3600443645175 868,673.2631134696502 869,673.1593834145193 870,673.0488629861907 871,672.9315615469491 872,672.8074890335042 873,672.6766559561502 874,672.539073397874 875,672.3947530134175 876,672.2437070282898 877,672.0859482377317 878,671.9214900056317 879,671.7503462633938 880,671.5725315087581 881,671.3880608045715 882,671.1969497775128 883,670.9992146167684 884,670.7948720726608 885,670.5839394552302 886,670.3664346327674 887,670.142376030301 888,669.911782628036 889,669.674673959746 890,669.4310701111187 891,669.1809917180547 892,668.9244599649186 893,668.661496582745 894,668.3921238473978 895,668.1163645776825 896,667.8342421334143 897,667.545780413438 898,667.2510038536044 899,666.9499374247002 900,666.6426066303322 901,666.3290375047676 902,666.0092566107278 903,665.6832910371389 904,665.3511683968368 905,665.0129168242279 906,664.668564972906 907,664.318142013225 908,663.9616776298279 909,663.599202019132 910,663.2307458867712 911,662.8563404449943 912,662.476017410022 913,662.0898089993594 914,661.6977479290671 915,661.2998674109895 916,660.8962011499419 917,660.4867833408549 918,660.0716486658782 919,659.6508322914419 920,659.2243698652783 921,658.7922975134015 922,658.3546518370478 923,657.9114699095744 924,657.4627892733196 925,657.0086479364221 926,656.5490843696017 927,656.0841375028996 928,655.6138467223817 929,655.1382518668014 930,654.6573932242253 931,654.1713115286194 932,653.6800479564002 933,653.1836441229449 934,652.682142079067 935,652.175584307454 936,651.6640137190689 937,651.1474736495144 938,650.6260078553627 939,650.0996605104483 940,649.5684762021268 941,649.0324999274968 942,648.4917770895887 943,647.9463534935188 944,647.3962753426084 945,646.8415892344709 946,646.2823421570633 947,645.7185814847069 948,645.1503549740731 949,644.577710760139 950,644.0006973521091 951,643.4193636293062 952,642.8337588370308 953,642.2439325823897 954,641.6499348300935 955,641.0518158982238 956,640.4496264539716 957,639.843417509344 958,639.2332404168444 959,638.6191468651207 960,638.0011888745879 961,637.379418793021 962,636.7538892911214 963,636.1246533580531 964,635.4917642969559 965,634.8552757204297 966,634.2152415459916 967,633.5717159915106 968,632.9247535706124 969,632.2744090880641 970,631.6207376351292 971,630.9637945849021 972,630.3036355876175 973,629.6403165659354 974,628.9738937102048 975,628.3044234737026 976,627.631962567853 977,626.9565679574213 978,626.2782968556902 979,625.5972067196128 980,624.9133552449449 981,624.2268003613575 982,623.5376002275299 983,622.8458132262231 984,622.151497959334 985,621.454713242931 986,620.7555181022715 987,620.0539717668028 988,619.3501336651433 989,618.6440634200495 990,617.9358208433642 991,617.2254659309513 992,616.5130588576116 993,615.7986599719864 994,615.082329791446 995,614.3641289969613 996,613.6441184279657 997,612.9223590771993 998,612.1989120855438 999,611.4738387368419 1000,610.7472004527065 1001,610.019058787318 1002,609.2894754222094 1003,608.5585121610413 1004,607.8262309243664 1005,607.0926937443845 1006,606.3579627596876 1007,605.6221002099956 1008,604.8851684308843 1009,604.1472298485054 1010,603.4083469742973 1011,602.6685823996903 1012,601.9279987908045 1013,601.186658883141 1014,600.4446254762679 1015,599.7019614284994 1016,598.9587296515731 1017,598.2149931053185 1018,597.470814792325 1019,596.726257752604 1020,595.9813850582501 1021,595.2362598080963 1022,594.4909451223702 1023,593.7455041373468 1024,593.0" stroke="#00DDB7" stroke-width="30" fill="none"/>
</svg>
